<svg xmlns="http://www.w3.org/2000/svg" xmlns:xlink="http://www.w3.org/1999/xlink" viewBox="0 0 616 724">
    <path id="sem-pond" d="M203.332 662.28l2.523-3.565 3.567-5.04.625-3.57-1.047-3.14.422-7.348 3.777-2.105 4.823-3.56 4.196-6.09 1.475-10.49 2.3-12.392 5.888-7.125 6.918-1.68 3.356-1.054.215-3.565.208-5.25 2.942-1.047 1.675 1.89 1.05 2.52 1.052 6.293-.63 14.907-2.1 10.074-3.99 8.18-5.452 6.087-3.57 3.57-4.828 1.887-5.668 2.516-2.935 4.203-.31 5.87 3.61 6.927 5.415 6.617 7.82 15.656 3.008 3.758 3.77 1.51 1.652 3.007 1.504 4.66 1.38 4.906-4.2 8.602-3.778 3.785-4.402 2.726-7.774 1.89-6.29-1.675-5.878-6.925-4.19-8.402-3.58-9.44-3.077-16.822zm14.137-21.91l1.65.642 3.57-.383 3.443-2.673 2.926-3.57.72-.895 1.83-2.29 1.488-2.807.804-1.52.637-3.445-.513-2.805-1.144-1.78-1.778-1.28-1.914.26-2.167.382-1.273.89-.64 4.08-1.274 3.698-1.785 3.94-1.91 2.298-1.523 2.422-.293.652-.855 1.9zm0 0" fill="#b3cfcf"/>
    <g id="roads" color="#000" fill="none" stroke="#d9d9d9" stroke-width="4" stroke-linecap="round" stroke-miterlimit="0" overflow="visible" enable-background="accumulate">
        <path d="M372.025-6.4c2.073 36.18 4.432 72.342 6.85 108.5l-6.85-108.5zm6.85 108.5l15.35 242.875c-4.11-81.02-9.947-161.936-15.35-242.875zm15.2 244.075l-1.775 212.05c2.05-70.64 8.898-141.473 1.775-212.05zM392.275 559c-.41 11.292-.722 40.59-.363 43.672l.363-43.672zm-.4 48.175c1.402 41.082 2.59 82.175 4.775 123.225l-4.775-123.225z" fill="none" stroke="#d9d9d9" stroke-width="12.8" stroke-linecap="round" stroke-linejoin="round"/>
        <path d="M618 693.75l-62.016.527c2.738-14.972-2.42-21.758-17.808-17.938-1.563.008-3.125.018-4.688.027" overflow="visible" enable-background="accumulate"/>
        <path d="M349.547 575.313c11.873 9.332 32.595-1.398 41.758 14.843" overflow="visible" enable-background="accumulate"/>
        <path d="M25.078 210.852c-2.097-34.23-3.954-68.824-5.778-102.846C10.896 94.9 1.13 81.29 2.2 64.696c-.595-20.09 3.904-41.343 20.4-54.42L35.55-2m313.993 0c5.736 15.822 9.182 31.923 6.57 48.762-4.142 48.636 1.797 97.294 10.18 145.175 2.062 40.25 11.945 82.062-1.973 121.2-4.09 13.368 8.906 25.52 8.09 39.39 5.765 32.663 8.55 66.007 7.887 99.065-3.555 19.16-6.44 40.723-19.204 55.86-20.18 16.25-43.096 28.627-67.976 35.88-22.476 11.885-48.215 15.073-73.243 10.857-17.68-1.126-35.532.29-52.948 3.44-23.932 3.288-39.812 12.077-55.098 15.93-10.3 8.976-23.476 2.708-29.305-8.103-17.207-19.317-10.013-47.205-13.663-70.8-.1-32.665-6.284-65.836-1.18-98.17 3.393-23.208 21.16-39.722 29.308-61.11 7.837-13.786 2.822-30.873 2.512-46.072-16.808-19.954-49.38 1.24-65.45-20.025-10.56-14.207-6.057-34.22-8.6-51l-.372-7.428" overflow="visible" enable-background="accumulate"/>
        <path d="M351.016 607.988c-11.297 3.965-27.36 4.86-20.312 20.635 3.23 13.962-2.216 29.918-15.216 36.886-12.06 6.423-26.782 6.115-37.992 14.576-12.202-2.172-23.69-.358-22.79 14.997L247.544 726" overflow="visible" enable-background="accumulate"/>
        <path d="M362.633 319.32c-18.295-19.72-41.448-33.756-63.324-48.707-14.782-10.35-18.216-28.63-27.258-42.893-10.14-9.646-20.17-19.48-34.71-21.354-6.56-2.5-13.716-2.35-20.572-3.51" overflow="visible" enable-background="accumulate"/>
        <path d="M370.87 342.21c20.658-2.345 42.225-2.16 62.317-6.077 9.098-6.01 17.158-14.013 20.352-24.692" overflow="visible" enable-background="accumulate"/>
        <path d="M618 519.25c-42.192 11.97-83.655 27.03-126.182 37.458-11.067 3.26-22.005 3.442-29.795-6.326-19.057-17.753-17.442-46.497-22.535-70.292-5.924-33.32-2.23-67.52 6.68-99.968 4.59-21.383 12.36-42.533 7.7-64.59-3.526-23.924-9.06-47.673-14.26-71.004l-3.952-30.044" overflow="visible" enable-background="accumulate"/>
        <path d="M431.613 337.23c8.674 6.466 17.266 14.002 18.56 25.422" overflow="visible" enable-background="accumulate"/>
        <path d="M555.984 694.277c4.312 16.368-4.367 19.44-19.042 16.373l-5.208-.162" overflow="visible" enable-background="accumulate"/>
        <path d="M321.867 533.14c7.367 15.07 9.452 36.1 27.68 42.173l1.47 32.675" overflow="visible" enable-background="accumulate"/>
        <path d="M258.59-2c8.665 4.895 6.586 26.96 17.604 21.645C295.46 12.422 314.734 5.225 334-2" overflow="visible" enable-background="accumulate"/>
        <path d="M101.594 578.598c13.15 23.502 22.985 48.628 26.137 75.51 6.68 23.653 1.27 47.814 1.778 71.892" overflow="visible" enable-background="accumulate"/>
        <path d="M123.518 632.026c20.09-1.955 50.577-20.807 47.377-42.772-.844-10.597-2.57-21.093-3.97-31.625" overflow="visible" enable-background="accumulate"/>
        <path d="M547.492 594.66c-19.912 6.58-38.684 20.697-60.6 16.703-11.28-14.65-8.275-34.655-12.408-51.984" overflow="visible" enable-background="accumulate"/>
        <path d="M435.656 214.484l-2.523-99.14" overflow="visible" enable-background="accumulate"/>
        <path d="M433.133 115.344l-.336-11.317" overflow="visible" enable-background="accumulate"/>
        <path d="M556.113 716.48c.792-11.22 21.46-3.256 30.68-6.343l31.207-1.13" overflow="visible" enable-background="accumulate"/>
        <path d="M456.64 467.81c-27.078 11.15-58.9 8.773-81.24 9.66" overflow="visible" enable-background="accumulate"/>
    </g>
    <g id="buildings" fill="#b4b4b4" stroke="#3d2626" stroke-width="1.5">
        <g id="fieldhouse">
            <path d="M122.285 166.992l4.922-1.406-1.988-6.402-1.29-4.15 50.175-14.768 1.184 3.75 3.972-1.41 14.777 49.71-4.45 1.168 3.277 11.493-49.523 15.812-6.28 2.015-2.19-8.52-2.27-8.836-8.202 2.11-1.898-36.353-.22-4.215"/>
            <path d="M35.527 90.79l46.684-1.907 3.286 80.683-18.176.75-28.507 1.153-3.286-80.68"/>
            <path d="M66.254 220.906l10.53-4.84-7.573-4.265-1.874-33.062 2.344-1.175-2.36-7.247 18.176-.75 10.918-.91 11.957-.476 14.134 3.027 1.898 36.352 8.203-2.11 2.27 8.835 2.188 8.52-4.067 1.504-4.59 6.463-3.613-3.437-52.688 2.035-5.85-8.464"/>
            <path d="M72.105 229.37l52.688-2.034 1.238 32.27-52.682 2.027-1.243-32.262"/>
        </g>
        <g id="science-complex">
            <path id="science" d="M118.66 371.93l17.715-10.446 4.453 1.65 11.723 6.366 13 7.27 1.528 5.984-2.293 2.293-9.582 5.57-3.797 2.207-.636 4.328-5.606 3.696-3.953-.766-3.815 2.04-6.118-1.4-4.972-.382-3.18-6.238-3.316-2.297-1.02-17.84-.13-2.035"/>
            <path id="north-hall" d="M127.324 315.355l2.168-4.207 1.528-2.16 4.328-3.445 4.972-1.402 4.973.89 3.695 2.048 3.946 4.07 1.91 7.778-.762 4.46-.184 1.563-.328 2.765 3.063 2.805.637 4.46 1.148 28.54-5.867 5.98-11.722-6.367 1.98-2.207 1.212-1.363-1.66-6.625.765-15.668 2.934-4.2-5.1-1.535-3.315.516-4.71-1.917-1.79-2.168-1.782-2.164-1.273-4.073-.766-6.372"/>
            <path id="devries" d="M84.387 397.414l.13-14.79 18.596-11.976 11.98 5.48 3.696-2.163 1.02 17.84-2.93.13-19.876 12.354-12.617-6.876"/>
        </g>
        <g id="dorms">
            <path id="khvr" d="M210.434 22.273l9.504-5.878 8.644 14.17 22.13-14.17 6.733 8.644-22.293 14.858 20.74 34.227 34.397-21.777 5.878 10.195-34.477 21.773-6.42 4.055-8.368 5.282-6.218-9.84L246.387 80l-35.953-57.727"/>
            <path id="bht" d="M153.727 281.105l9.402-24.832 10.85 4.106-6.988 17.108 12.05 8.684 12.294-17.12 8.922 5.788-10.606 15.426 14.047 14.566 11.988 12.434 16.64-8.434 5.297 10.848-25.066 11.09-13.236-14.575-4.367 2.754-8.797-8.954 3.024-2.91-11.875-13.328-2.962 3.394-20.62-16.047"/>
            <path id="nvw" d="M202.168 166.277l4.72-9.757 13.75 6.71-1.255 2.633 34.105 15.95 14.367-30.958 10.29 5.45-18.477 35.968-5.133 9.997-9.344-3.99 3.044-5.97-33.89-15.642 1.46-3.566-13.636-6.825"/>
            <path id="se" d="M263.246 320.57l7.156-9.41 15.145-19.914 1.055.984 6.675-9.39 2.18 1.57 3.543-4.6 10.215 7.053-5.735 8.313-3.148-2.172-1.863 2.644-2.618 3.723-1.16-.59-7.743 11.036 4.706 3.422-2.273 3.633 10.074 7.153-.594 1.266 3.594 2.46 4.605 3.168 3.645-5.13 7.566 5.61-6.34 8.57-3.785-2.96-3.253 4.176-10.305-7.207-.934 1.25-17.078-12.45-3.492 4.786-9.84-6.993"/>
            <path id="bb" d="M280.188 141.777v-10.093l8.484.144 2.05-38.344 15.81 1.172-.15 8.926-4.827.14-.22 3.598-1.534 25.094 24.735-.293.727-4.24 8.488.284.44 13.176-5.116.293v2.203l-31.91-.3-.148 4.1h-7.028l.15-5.413-9.95-.446"/>
            <path id="bv" d="M306.234 248.188l10.957-7.426 33.537-22.727 6.445 9.512-28.4 18.883 21.81 32.2-9.95 5.116-21.226-30.008-6.73 2.64-6.442-8.19"/>
            <path id="rvd" d="M177.598 235.543l4.582-8.195 7.715 3.85-1.45 4.103 25.797 13.743 6.992-16.152 3.62-10.124-4.346-1.45.66-1.42 1.992-4.36 14.227 5.058-15.434 37.61-2.168-.72-.476 1.305-3.86 10.495-9.888-4.086 2.653-6.997-29.172-14.71 2.41-5.298-3.855-2.652"/>
        </g>
        <g id="ke">
            <path id="phi-chi" d="M573.297 570.03l8.812-9.335 11.843 8.883L611.84 583l-7.258 10.535-9.375-7.043-14.082-10.582-7.828-5.88"/>
            <path id="zeta-lambda" d="M568.805 670.63l36.63-.5.17 12.788-10.04.133-18.026.243-8.56.117-.175-12.78"/>
            <path id="epsilon" d="M525.926 626.926l27.535-10.047 4.708 12.577-28.277 10.074-3.964-12.604"/>
            <path id="theta" d="M497.418 635.89l28.508-8.964 3.965 12.605-1.523.482-26.976 8.484-3.972-12.605"/>
            <path id="gamma" d="M505.195 697.938l7.016-.21 11.15-.353.43 13.77-11.45.35-6.72.212-.425-13.77"/>
            <path id="delta" d="M510.555 671.84l18.547-.41.304 13.37-11.52.255-7.03.16-.3-13.375"/>
            <path id="kappa" d="M531.3 686.53l12.934-.143.2 17.95-12.938.143-.098-9.132-.097-8.817"/>
            <path id="alpha" d="M481.52 703.13l6.472-.11 10.942-.2.218 12.575-10.242.18-7.172.128-.218-12.574"/>
            <path id="beta" d="M489.293 675.47l12.812-.19.122 8.786.12 8.258-12.804.188-.25-17.043"/>
        </g>
        <path id="cfac" d="M294.906 396.012l19.184-6.133 2.656 6.94 3.68-.808 24.086 5.5-1.637-6.324 11.23-3.266.407 1.836 3.88-1.02 5.303 15.305-4.285 1.03.613 2.04h2.45l2.863 9.387-2.457 8.168-2.044 1.832 3.473 1.227-3.267 15.316-4.074-.62-.622 2.858-10.817-3.257.204-6.335-26.95 7.355-2.44 6.94-19.395-4.088 3.464-15.922-3.672-5.305.207-10.41 1.628-8.98-3.672-13.266"/>
        <path id="seminary" d="M237.09 660.72l24.45-14.216-12.79.07-1.504-5.262 1.434-4.742 16.925-1.054.145-6.317-9.773-5.42 9.476-19.034 2.41 1.203 3.082-6.098 4.703 2.7 27.422 15.737.98-1.657-4.292-7.446-.11-2.91-.34-8.605 24.004-6.692 5.64 10.23-.222 10.76-11.132 3.39v3.226h1.277l.148 8.355-4.51.154v8.343l2.483.305-.078 13.695-10.688.223-.37 5.715-10.458 3.39-14.675-4.59v-7.222l-6.395.297 3.086 6.32-6.77 3.535-1.05-1.43-6.403 3.845-2.035-1.958-2.855 1.204 1.28 5.046-14.444 8.946-8.05-12.04m35.965-24.597l10.156-.147 11.888-2.563 5.343 1.28.076-4.967-20.993-11.88-6.468 11.88v6.398"/>
        <path id="library" d="M197.96 481.69h7.29l-.523-7.104-1.08-14.844 5.232-.906.593-5.274 30.73-1.757.59 4.984 7.61-.302.902 11.934 1.32 17.543 2.883-.027.137 1.656 11.585-.766v1.15l7.774-.26.258 12.364-19.37 1.266v1.664l-7.372-.035-1.958-.012-3.566-.215 1.082 17.484-10.793.215-1.187-16.723-16.4.54.33 2.585-14.58.984-.48-15.7-1.007-10.445"/>
        <path id="spoelhof-center" d="M90.04 508.89l.292-14.93 11.418-.292V432.19l6.367.083 13.985.18 3.652.04-.176 32.042-.11 20.113-.007 1.122h9.364v8.48l15.516.59v30.734h-23.422l-.285-16.683H90.04"/>
        <path id="prince" d="M519.855 424.996l46.747-1.84.816 10.614 43.69-1.223 1.43 14.496-42.866 1.422-1.227 8.172-14.82.183-25.05.325-7.9.097-.57-22.465-.25-9.78"/>
        <path id="commons" d="M222.918 367.484l4.098-.13-.63-13.354 13.864-.367-.242-3.613 10.488-.598.723 4.09 3.737-.12.844 5.905 8.075-.594V348.69l15.063.244.636 17.82h-1.69l.483 3.496-3.38 4.098-5.78.12-1.81-1.925-3.377.242.726 8.8h-1.562l.355 6.267-12.294.382-9.766.31-3.652.112-1.285.04-.844-3.74-10.005.485-.367-7.23-2.285.24-.125-10.966"/>
        <path id="knollcrest" d="M288.96 199.645l5.528-5.524 1.977-1.975-6.098-4.922 10.79-11.016 3.51 3.043 6.1-6.332 3.987 2.11 5.63-4.688 20.163 21.332-8.75 8.277-8.598 8.144-5.704 7.265-6.254 7.976-21.578-18.527 1.645-3.052-2.35-2.113"/>
        <path id="hiemenga" d="M165.852 460.883l2.148-.07 35.648-1.07 1.08 14.843-21.04.918.52 17.078 14.76-.445.48 15.7.03.96-22.806.695-.164-5.394-9.34.28-.09-2.83-1.148-38.25-.078-2.415"/>
        <path id="engineering" d="M64.156 321.938l4.633-.21-.864-18.876 5.863-.278-.192-4.195 14.59-.677 1.222 26.504-4.844.22.055 1.272.88 19.152-4.43.2.203 4.374-15.824.726-1.294-28.214"/>
        <path id="devos" d="M453.926 460.71l51.234-16.116 1.848 5.543 3.664 10.988-5.03 1.906-29.497 11.212-14.875 5.66-4.63-12.093-2.714-7.1"/>
        <path id="commons-annex" d="M236.78 416.777l3.017.118-.97-24.106 3.02-.118-.367-4.13 9.766-.308.125 3.953 3.853-.238 1.086 24.347 1.077.117.484 14.828-13.268.637-6.977.33-.844-15.433"/>
        <path id="unknown-1" d="M408.324 39.156l50.442-.492.105 11.227-50.436.497-.11-11.23"/>
        <path id="unknown-2" d="M440.63 92.78l6.75-6.75-.892-6.577-5.86-5.328 7.462-7.824 6.402 5.337 3.016-2.48 8.004 7.284-6.043 6.392 5.866 6.215-6.938 7.828-3.02-3.734-6.218 7.106-8.53-7.465"/>
        <path id="guest-house" d="M173.43 595.516l2.375-.18.097-7.313 1-.18v-7.034l2.653.178-.274-11.41 5.11-.277.278 10.317-2.46.55.636 7.677 12.332 9.226-3.656 3.375-3.743-3.375-2.468 2.004.088 1.832-11.875.18-.093-5.57"/>
        <path id="dewit-mannor" d="M325.773 703.04l4.34-3.66-.234-7.42-4.107-4.24 6.29-6.025 3.992 3.407.394 1.238 2.292.195.977 1.117.132 2.094-.325 3.28.192 11.786-3.208-.26-.723.718 1.972 2.292-4.59 4.52-3.32-3.285-3.032-2.996.723-.788-1.77-1.973"/>
        <path id="chapel" d="M152.156 533.125l6.133-12.078 13.417-4.18 11.367 6.938 4.707 13.148-6.214 11.906-13.61 3.742-11.976-6.414-3.824-13.063"/>
        <path id="unknown-3" d="M51.75 367.723l8.402-15.645 12.274 6.23-11.43 18.833 1.176 10.42h-2.86l1.52 12.272-5.89.332-2.352-28.074 1.344-2.692zm0 0" color="#000" overflow="visible" enable-background="accumulate"/>
    </g>
</svg>
